<svg width="24" height="24" viewBox="0 0 24 24" fill="none" xmlns="http://www.w3.org/2000/svg">
<path d="M22.5207 0H14.2685C13.4528 0 12.7892 0.663647 12.7892 1.47928C12.7892 2.29491 13.4528 2.95856 14.2685 2.95856H18.9495L11.141 10.767C10.8615 11.0463 10.7076 11.4178 10.7076 11.813C10.7076 12.2083 10.8614 12.5796 11.1409 12.8587C11.4203 13.1385 11.7917 13.2924 12.1869 13.2924C12.582 13.2924 12.9535 13.1385 13.2331 12.859L21.0415 5.05051V9.73155C21.0415 10.5472 21.7051 11.2108 22.5207 11.2108C23.3364 11.2108 24 10.5472 24 9.73155V1.47928C24 0.663647 23.3364 0 22.5207 0Z"/>
<path d="M17.0022 21.4641H2.53591V6.99784H13.4159L15.9518 4.46193H1.26795C0.567705 4.46193 0 5.02963 0 5.72988V22.732C0 23.4323 0.567705 24 1.26795 24H18.2701C18.9704 24 19.5381 23.4323 19.5381 22.732V8.04821L17.0022 10.5841V21.4641Z"/>
</svg>
